<svg xmlns="http://www.w3.org/2000/svg" width="1080" height="2340" viewBox="0 0 1080 2340" fill="none">
  <defs>
    <linearGradient id="bg" x1="90" y1="0" x2="1030" y2="2340" gradientUnits="userSpaceOnUse">
      <stop offset="0" stop-color="#F4F7F3"/>
      <stop offset="0.52" stop-color="#E7EFE8"/>
      <stop offset="1" stop-color="#DCE8E2"/>
    </linearGradient>
    <radialGradient id="orbA" cx="0" cy="0" r="1" gradientUnits="userSpaceOnUse" gradientTransform="translate(210 390) rotate(25) scale(465 400)">
      <stop offset="0" stop-color="#FFFFFF" stop-opacity="0.8"/>
      <stop offset="1" stop-color="#FFFFFF" stop-opacity="0"/>
    </radialGradient>
    <radialGradient id="orbB" cx="0" cy="0" r="1" gradientUnits="userSpaceOnUse" gradientTransform="translate(910 1710) rotate(-15) scale(485 430)">
      <stop offset="0" stop-color="#C9DDD2" stop-opacity="0.55"/>
      <stop offset="1" stop-color="#C9DDD2" stop-opacity="0"/>
    </radialGradient>
    <radialGradient id="orbC" cx="0" cy="0" r="1" gradientUnits="userSpaceOnUse" gradientTransform="translate(800 500) rotate(-10) scale(330 305)">
      <stop offset="0" stop-color="#DDEAE2" stop-opacity="0.75"/>
      <stop offset="1" stop-color="#DDEAE2" stop-opacity="0"/>
    </radialGradient>
    <filter id="softBlur" x="-20%" y="-20%" width="140%" height="140%">
      <feGaussianBlur stdDeviation="36"/>
    </filter>
  </defs>

  <rect width="1080" height="2340" fill="url(#bg)"/>
  <ellipse cx="210" cy="390" rx="465" ry="400" fill="url(#orbA)" filter="url(#softBlur)"/>
  <ellipse cx="910" cy="1710" rx="485" ry="430" fill="url(#orbB)" filter="url(#softBlur)"/>
  <ellipse cx="800" cy="500" rx="330" ry="305" fill="url(#orbC)" filter="url(#softBlur)"/>

  <path d="M-70 1685C115 1550 390 1560 630 1685C835 1775 1030 1960 1190 2140V2410H-70V1685Z" fill="#E3ECE6" fill-opacity="0.65"/>
  <path d="M-70 1815C195 1710 475 1750 680 1865C870 1960 1020 2120 1190 2280V2410H-70V1815Z" fill="#EDF3EE" fill-opacity="0.8"/>
</svg>
