<svg xmlns="http://www.w3.org/2000/svg" width="1179" height="2556" viewBox="0 0 1179 2556" fill="none">
  <defs>
    <linearGradient id="bg" x1="100" y1="0" x2="1110" y2="2556" gradientUnits="userSpaceOnUse">
      <stop offset="0" stop-color="#F4F7F3"/>
      <stop offset="0.52" stop-color="#E7EFE8"/>
      <stop offset="1" stop-color="#DCE8E2"/>
    </linearGradient>
    <radialGradient id="orbA" cx="0" cy="0" r="1" gradientUnits="userSpaceOnUse" gradientTransform="translate(235 425) rotate(25) scale(505 435)">
      <stop offset="0" stop-color="#FFFFFF" stop-opacity="0.8"/>
      <stop offset="1" stop-color="#FFFFFF" stop-opacity="0"/>
    </radialGradient>
    <radialGradient id="orbB" cx="0" cy="0" r="1" gradientUnits="userSpaceOnUse" gradientTransform="translate(990 1860) rotate(-15) scale(525 465)">
      <stop offset="0" stop-color="#C9DDD2" stop-opacity="0.55"/>
      <stop offset="1" stop-color="#C9DDD2" stop-opacity="0"/>
    </radialGradient>
    <radialGradient id="orbC" cx="0" cy="0" r="1" gradientUnits="userSpaceOnUse" gradientTransform="translate(870 550) rotate(-10) scale(365 335)">
      <stop offset="0" stop-color="#DDEAE2" stop-opacity="0.75"/>
      <stop offset="1" stop-color="#DDEAE2" stop-opacity="0"/>
    </radialGradient>
    <filter id="softBlur" x="-20%" y="-20%" width="140%" height="140%">
      <feGaussianBlur stdDeviation="40"/>
    </filter>
  </defs>

  <rect width="1179" height="2556" fill="url(#bg)"/>
  <ellipse cx="235" cy="425" rx="505" ry="435" fill="url(#orbA)" filter="url(#softBlur)"/>
  <ellipse cx="990" cy="1860" rx="525" ry="465" fill="url(#orbB)" filter="url(#softBlur)"/>
  <ellipse cx="870" cy="550" rx="365" ry="335" fill="url(#orbC)" filter="url(#softBlur)"/>

  <path d="M-80 1835C125 1690 435 1710 705 1835C925 1930 1145 2145 1295 2325V2620H-80V1835Z" fill="#E3ECE6" fill-opacity="0.65"/>
  <path d="M-80 1975C215 1855 535 1905 765 2025C965 2125 1135 2285 1295 2475V2620H-80V1975Z" fill="#EDF3EE" fill-opacity="0.8"/>
</svg>
