<svg xmlns="http://www.w3.org/2000/svg" width="1170" height="2532" viewBox="0 0 1170 2532" fill="none">
  <defs>
    <linearGradient id="bg" x1="100" y1="0" x2="1100" y2="2532" gradientUnits="userSpaceOnUse">
      <stop offset="0" stop-color="#F4F7F3"/>
      <stop offset="0.52" stop-color="#E7EFE8"/>
      <stop offset="1" stop-color="#DCE8E2"/>
    </linearGradient>
    <radialGradient id="orbA" cx="0" cy="0" r="1" gradientUnits="userSpaceOnUse" gradientTransform="translate(230 420) rotate(25) scale(500 430)">
      <stop offset="0" stop-color="#FFFFFF" stop-opacity="0.8"/>
      <stop offset="1" stop-color="#FFFFFF" stop-opacity="0"/>
    </radialGradient>
    <radialGradient id="orbB" cx="0" cy="0" r="1" gradientUnits="userSpaceOnUse" gradientTransform="translate(980 1840) rotate(-15) scale(520 460)">
      <stop offset="0" stop-color="#C9DDD2" stop-opacity="0.55"/>
      <stop offset="1" stop-color="#C9DDD2" stop-opacity="0"/>
    </radialGradient>
    <radialGradient id="orbC" cx="0" cy="0" r="1" gradientUnits="userSpaceOnUse" gradientTransform="translate(860 540) rotate(-10) scale(360 330)">
      <stop offset="0" stop-color="#DDEAE2" stop-opacity="0.75"/>
      <stop offset="1" stop-color="#DDEAE2" stop-opacity="0"/>
    </radialGradient>
    <filter id="softBlur" x="-20%" y="-20%" width="140%" height="140%">
      <feGaussianBlur stdDeviation="40"/>
    </filter>
  </defs>

  <rect width="1170" height="2532" fill="url(#bg)"/>
  <ellipse cx="230" cy="420" rx="500" ry="430" fill="url(#orbA)" filter="url(#softBlur)"/>
  <ellipse cx="980" cy="1840" rx="520" ry="460" fill="url(#orbB)" filter="url(#softBlur)"/>
  <ellipse cx="860" cy="540" rx="360" ry="330" fill="url(#orbC)" filter="url(#softBlur)"/>

  <path d="M-80 1820C120 1680 430 1700 700 1820C920 1915 1140 2130 1290 2310V2600H-80V1820Z" fill="#E3ECE6" fill-opacity="0.65"/>
  <path d="M-80 1960C210 1840 530 1890 760 2010C960 2110 1130 2270 1290 2460V2600H-80V1960Z" fill="#EDF3EE" fill-opacity="0.8"/>
</svg>
