<svg xmlns="http://www.w3.org/2000/svg" width="1206" height="2622" viewBox="0 0 1206 2622" fill="none">
  <defs>
    <linearGradient id="bg" x1="100" y1="0" x2="1130" y2="2622" gradientUnits="userSpaceOnUse">
      <stop offset="0" stop-color="#F4F7F3"/>
      <stop offset="0.52" stop-color="#E7EFE8"/>
      <stop offset="1" stop-color="#DCE8E2"/>
    </linearGradient>
    <radialGradient id="orbA" cx="0" cy="0" r="1" gradientUnits="userSpaceOnUse" gradientTransform="translate(240 440) rotate(25) scale(520 445)">
      <stop offset="0" stop-color="#FFFFFF" stop-opacity="0.8"/>
      <stop offset="1" stop-color="#FFFFFF" stop-opacity="0"/>
    </radialGradient>
    <radialGradient id="orbB" cx="0" cy="0" r="1" gradientUnits="userSpaceOnUse" gradientTransform="translate(1020 1910) rotate(-15) scale(540 480)">
      <stop offset="0" stop-color="#C9DDD2" stop-opacity="0.55"/>
      <stop offset="1" stop-color="#C9DDD2" stop-opacity="0"/>
    </radialGradient>
    <radialGradient id="orbC" cx="0" cy="0" r="1" gradientUnits="userSpaceOnUse" gradientTransform="translate(890 565) rotate(-10) scale(375 345)">
      <stop offset="0" stop-color="#DDEAE2" stop-opacity="0.75"/>
      <stop offset="1" stop-color="#DDEAE2" stop-opacity="0"/>
    </radialGradient>
    <filter id="softBlur" x="-20%" y="-20%" width="140%" height="140%">
      <feGaussianBlur stdDeviation="42"/>
    </filter>
  </defs>

  <rect width="1206" height="2622" fill="url(#bg)"/>
  <ellipse cx="240" cy="440" rx="520" ry="445" fill="url(#orbA)" filter="url(#softBlur)"/>
  <ellipse cx="1020" cy="1910" rx="540" ry="480" fill="url(#orbB)" filter="url(#softBlur)"/>
  <ellipse cx="890" cy="565" rx="375" ry="345" fill="url(#orbC)" filter="url(#softBlur)"/>

  <path d="M-90 1885C125 1730 455 1750 745 1885C975 1985 1205 2210 1340 2390V2690H-90V1885Z" fill="#E3ECE6" fill-opacity="0.65"/>
  <path d="M-90 2030C235 1900 565 1960 805 2090C1015 2205 1190 2365 1340 2555V2690H-90V2030Z" fill="#EDF3EE" fill-opacity="0.8"/>
</svg>
