<svg xmlns="http://www.w3.org/2000/svg" width="1320" height="2868" viewBox="0 0 1320 2868" fill="none">
  <defs>
    <linearGradient id="bg" x1="120" y1="0" x2="1250" y2="2868" gradientUnits="userSpaceOnUse">
      <stop offset="0" stop-color="#F4F7F3"/>
      <stop offset="0.52" stop-color="#E7EFE8"/>
      <stop offset="1" stop-color="#DCE8E2"/>
    </linearGradient>
    <radialGradient id="orbA" cx="0" cy="0" r="1" gradientUnits="userSpaceOnUse" gradientTransform="translate(260 490) rotate(25) scale(575 485)">
      <stop offset="0" stop-color="#FFFFFF" stop-opacity="0.8"/>
      <stop offset="1" stop-color="#FFFFFF" stop-opacity="0"/>
    </radialGradient>
    <radialGradient id="orbB" cx="0" cy="0" r="1" gradientUnits="userSpaceOnUse" gradientTransform="translate(1120 2100) rotate(-15) scale(600 520)">
      <stop offset="0" stop-color="#C9DDD2" stop-opacity="0.55"/>
      <stop offset="1" stop-color="#C9DDD2" stop-opacity="0"/>
    </radialGradient>
    <radialGradient id="orbC" cx="0" cy="0" r="1" gradientUnits="userSpaceOnUse" gradientTransform="translate(980 630) rotate(-10) scale(415 370)">
      <stop offset="0" stop-color="#DDEAE2" stop-opacity="0.75"/>
      <stop offset="1" stop-color="#DDEAE2" stop-opacity="0"/>
    </radialGradient>
    <filter id="softBlur" x="-20%" y="-20%" width="140%" height="140%">
      <feGaussianBlur stdDeviation="47"/>
    </filter>
  </defs>

  <rect width="1320" height="2868" fill="url(#bg)"/>
  <ellipse cx="260" cy="490" rx="575" ry="485" fill="url(#orbA)" filter="url(#softBlur)"/>
  <ellipse cx="1120" cy="2100" rx="600" ry="520" fill="url(#orbB)" filter="url(#softBlur)"/>
  <ellipse cx="980" cy="630" rx="415" ry="370" fill="url(#orbC)" filter="url(#softBlur)"/>

  <path d="M-110 2060C170 1865 530 1900 840 2060C1110 2205 1340 2450 1490 2650V2950H-110V2060Z" fill="#E3ECE6" fill-opacity="0.65"/>
  <path d="M-110 2230C300 2065 655 2150 905 2300C1140 2430 1325 2620 1490 2830V2950H-110V2230Z" fill="#EDF3EE" fill-opacity="0.8"/>
</svg>
