<svg xmlns="http://www.w3.org/2000/svg" width="1179" height="2556" viewBox="0 0 1179 2556" fill="none">
  <defs>
    <linearGradient id="bg" x1="0" y1="0" x2="1179" y2="2556" gradientUnits="userSpaceOnUse">
      <stop offset="0" stop-color="#102041"/>
      <stop offset="0.45" stop-color="#12454B"/>
      <stop offset="1" stop-color="#2C3270"/>
    </linearGradient>
    <radialGradient id="mint" cx="0" cy="0" r="1" gradientUnits="userSpaceOnUse" gradientTransform="translate(230 360) rotate(10) scale(540 540)">
      <stop offset="0" stop-color="#7CFFE2" stop-opacity="0.95"/>
      <stop offset="0.35" stop-color="#52F2DD" stop-opacity="0.48"/>
      <stop offset="1" stop-color="#52F2DD" stop-opacity="0"/>
    </radialGradient>
    <radialGradient id="peach" cx="0" cy="0" r="1" gradientUnits="userSpaceOnUse" gradientTransform="translate(980 470) rotate(0) scale(420 420)">
      <stop offset="0" stop-color="#FFC59D" stop-opacity="0.85"/>
      <stop offset="0.4" stop-color="#FFC59D" stop-opacity="0.38"/>
      <stop offset="1" stop-color="#FFC59D" stop-opacity="0"/>
    </radialGradient>
    <radialGradient id="blue" cx="0" cy="0" r="1" gradientUnits="userSpaceOnUse" gradientTransform="translate(900 1830) rotate(0) scale(430 430)">
      <stop offset="0" stop-color="#9AB6FF" stop-opacity="0.78"/>
      <stop offset="0.45" stop-color="#9AB6FF" stop-opacity="0.28"/>
      <stop offset="1" stop-color="#9AB6FF" stop-opacity="0"/>
    </radialGradient>
    <linearGradient id="glassA" x1="210" y1="1300" x2="790" y2="2100" gradientUnits="userSpaceOnUse">
      <stop offset="0" stop-color="#FFFFFF" stop-opacity="0.18"/>
      <stop offset="0.5" stop-color="#7CFFE2" stop-opacity="0.08"/>
      <stop offset="1" stop-color="#FFFFFF" stop-opacity="0"/>
    </linearGradient>
    <linearGradient id="glassB" x1="720" y1="1850" x2="1160" y2="2480" gradientUnits="userSpaceOnUse">
      <stop offset="0" stop-color="#FFD6B3" stop-opacity="0.22"/>
      <stop offset="1" stop-color="#FFD6B3" stop-opacity="0"/>
    </linearGradient>
    <filter id="blur32" x="-20%" y="-20%" width="140%" height="140%">
      <feGaussianBlur stdDeviation="32"/>
    </filter>
  </defs>

  <rect width="1179" height="2556" fill="url(#bg)"/>
  <rect width="1179" height="2556" fill="url(#bg)"/>
  <ellipse cx="230" cy="360" rx="540" ry="540" fill="url(#mint)" filter="url(#blur32)"/>
  <ellipse cx="980" cy="470" rx="420" ry="420" fill="url(#peach)" filter="url(#blur32)"/>
  <ellipse cx="900" cy="1830" rx="430" ry="430" fill="url(#blue)" filter="url(#blur32)"/>

  <rect x="-20" y="1390" width="920" height="900" rx="260" transform="rotate(-16 -20 1390)" fill="url(#glassA)"/>
  <rect x="650" y="1700" width="760" height="650" rx="220" transform="rotate(19 650 1700)" fill="url(#glassB)"/>

  <path d="M-80 1820C120 1770 280 1715 460 1738C638 1760 774 1865 948 1888C1094 1908 1230 1852 1290 1812" stroke="rgba(255,255,255,0.16)" stroke-width="2" stroke-linecap="round"/>
  <path d="M-60 2050C120 2000 310 1938 492 1960C693 1985 846 2098 1010 2120C1126 2135 1228 2104 1290 2078" stroke="rgba(200,242,255,0.14)" stroke-width="2" stroke-linecap="round"/>

  <rect width="1179" height="2556" fill="url(#fade)" opacity="0"/>
  <rect width="1179" height="2556" fill="url(#shade)" opacity="0"/>
  <defs>
    <linearGradient id="fade" x1="0" y1="0" x2="0" y2="2556" gradientUnits="userSpaceOnUse">
      <stop offset="0" stop-color="#FFFFFF" stop-opacity="0.06"/>
      <stop offset="0.28" stop-color="#FFFFFF" stop-opacity="0"/>
      <stop offset="1" stop-color="#FFFFFF" stop-opacity="0"/>
    </linearGradient>
    <linearGradient id="shade" x1="0" y1="0" x2="0" y2="2556" gradientUnits="userSpaceOnUse">
      <stop offset="0" stop-color="#000000" stop-opacity="0"/>
      <stop offset="1" stop-color="#000000" stop-opacity="0.18"/>
    </linearGradient>
  </defs>
  <rect width="1179" height="2556" fill="url(#fade)"/>
  <rect width="1179" height="2556" fill="url(#shade)"/>
</svg>
